<?xml version="1.0" standalone="no"?><!DOCTYPE svg PUBLIC "-//W3C//DTD SVG 1.1//EN" "http://www.w3.org/Graphics/SVG/1.1/DTD/svg11.dtd"><svg t="1711972516909" class="icon" viewBox="0 0 1156 1024" version="1.1" xmlns="http://www.w3.org/2000/svg" p-id="1040" xmlns:xlink="http://www.w3.org/1999/xlink" width="225.78125" height="200"><path d="M477.014352 0m87.296507 28.079952l503.99765 162.116793q87.296506 28.079952 59.216555 115.376459l-175.529651 545.696281q-28.079952 87.296506-115.376458 59.216555l-503.997651-162.116794q-87.296506-28.079952-59.216554-115.376458l175.52965-545.696282q28.079952-87.296506 115.376459-59.216554Z" fill="#0F62FE" p-id="1041"></path><path d="M379.048119 172.556227a61.134328 61.134328 0 0 0-47.790232-23.009433H93.229851c-51.490388 0-93.229851 41.739463-93.229851 93.229851v657.19403c0 68.371104 55.42591 123.797015 123.797015 123.797015h617.456716c67.527451 0 122.268657-54.742734 122.268657-122.268657v-493.659702c0-67.527451-54.741206-122.268657-122.268657-122.268656H480.243773a22.925373 22.925373 0 0 1-17.921528-8.629111l-83.274126-104.385337z" fill="#C1D0FF" fill-opacity=".4" p-id="1042"></path><path d="M163.534328 782.519403m39.737314 0l456.979104 0q39.737313 0 39.737314 39.737313l0 0q0 39.737313-39.737314 39.737314l-456.979104 0q-39.737313 0-39.737314-39.737314l0 0q0-39.737313 39.737314-39.737313Z" fill="#FFFFFF" p-id="1043"></path></svg>